<?xml version="1.0" encoding="UTF-8"?>
<!DOCTYPE svg PUBLIC "-//W3C//DTD SVG 1.1//EN" "http://www.w3.org/Graphics/SVG/1.1/DTD/svg11.dtd">
<svg xmlns="http://www.w3.org/2000/svg" version="1.1" width="299px" height="169px" style="shape-rendering:geometricPrecision; text-rendering:geometricPrecision; image-rendering:optimizeQuality; fill-rule:evenodd; clip-rule:evenodd" xmlns:xlink="http://www.w3.org/1999/xlink">
<g><path style="opacity:1" fill="#fcfcfc" d="M -0.5,-0.5 C 99.1667,-0.5 198.833,-0.5 298.5,-0.5C 298.5,13.1667 298.5,26.8333 298.5,40.5C 293.968,40.1818 289.634,40.5151 285.5,41.5C 285.189,42.4778 284.522,43.1445 283.5,43.5C 271.712,36.628 263.212,39.628 258,52.5C 256.583,60.4927 258.75,67.326 264.5,73C 270.653,76.4816 276.653,76.3149 282.5,72.5C 286.514,83.6117 282.847,88.7783 271.5,88C 268.603,86.2845 267.269,83.7845 267.5,80.5C 266.167,80.5 264.833,80.5 263.5,80.5C 262.657,86.1821 259.657,90.3488 254.5,93C 240.623,98.6631 226.29,99.9965 211.5,97C 194.818,92.3273 178.151,87.6607 161.5,83C 127.364,75.7392 96.6977,82.9059 69.5,104.5C 79.0059,110.087 88.6726,115.42 98.5,120.5C 115.979,103.174 136.979,96.3411 161.5,100C 179.951,103.207 198.451,106.041 217,108.5C 230.678,108.644 243.511,105.477 255.5,99C 259.34,96.3256 262.673,93.1589 265.5,89.5C 273.414,96.7488 281.748,97.2488 290.5,91C 292.102,89.0653 293.269,86.8987 294,84.5C 294.167,71.1542 294.667,57.8209 295.5,44.5C 296.183,44.1373 296.85,43.8039 297.5,43.5C 297.833,43.5 298.167,43.5 298.5,43.5C 298.5,85.1667 298.5,126.833 298.5,168.5C 198.833,168.5 99.1667,168.5 -0.5,168.5C -0.5,112.167 -0.5,55.8333 -0.5,-0.5 Z"/></g>
<g><path style="opacity:1" fill="#05321f" d="M 23.5,0.5 C 43.8443,0.167025 64.1776,0.500358 84.5,1.5C 78.3593,10.1411 72.0259,18.6411 65.5,27C 59.8796,24.0218 53.7129,22.1885 47,21.5C 31.4897,24.0091 22.1563,33.0091 19,48.5C 17.931,68.7682 27.0976,81.9348 46.5,88C 59.5247,90.5994 70.858,87.4327 80.5,78.5C 82.1013,79.0347 82.6013,80.0347 82,81.5C 68.81,94.0042 53.31,98.1708 35.5,94C 11.1827,85.0013 -0.317296,67.5013 1,41.5C 3.82573,25.1752 11.3257,11.5085 23.5,0.5 Z"/></g>
<g><path style="opacity:1" fill="#06301d" d="M 239.5,1.5 C 240.833,1.5 242.167,1.5 243.5,1.5C 243.5,3.5 243.5,5.5 243.5,7.5C 247.068,7.24066 248.401,5.24066 247.5,1.5C 251.163,1.95178 254.83,2.45178 258.5,3C 259.022,3.5613 259.355,4.22797 259.5,5C 257.31,7.59718 255.976,10.5972 255.5,14C 253.243,13.5629 250.91,13.0629 248.5,12.5C 249.437,14.8379 250.77,17.0045 252.5,19C 250.054,20.779 248.387,23.1123 247.5,26C 246.167,26.6667 244.833,26.6667 243.5,26C 242.477,23.1028 240.643,20.9362 238,19.5C 237.333,18.8333 237.333,18.1667 238,17.5C 239.972,16.6948 241.472,15.3615 242.5,13.5C 241.833,13.1667 241.167,12.8333 240.5,12.5C 238.845,13.3877 237.178,13.8877 235.5,14C 234.713,10.7592 233.38,7.75915 231.5,5C 231.645,4.22797 231.978,3.5613 232.5,3C 235.036,2.81382 237.369,2.31382 239.5,1.5 Z"/></g>
<g><path style="opacity:1" fill="#032e1b" d="M 136.5,41.5 C 143.022,41.1765 149.355,41.5098 155.5,42.5C 154.62,45.2622 153.454,47.9289 152,50.5C 148.744,48.5715 145.244,48.0715 141.5,49C 140.14,50.9376 140.473,52.6043 142.5,54C 146.079,55.7059 149.579,57.5392 153,59.5C 155.109,63.7809 154.942,67.9476 152.5,72C 151.167,72.6667 149.833,73.3333 148.5,74C 143.333,74.1667 138.167,74.3333 133,74.5C 126.755,74.6011 120.589,74.1011 114.5,73C 112.513,71.6811 111.346,69.8477 111,67.5C 110.667,52.1667 110.333,36.8333 110,21.5C 108.294,20.6921 107.461,19.3588 107.5,17.5C 112.167,17.5 116.833,17.5 121.5,17.5C 121.333,34.17 121.5,50.8367 122,67.5C 126.27,69.4279 127.77,68.2613 126.5,64C 127.563,62.8118 128.897,62.3118 130.5,62.5C 131.56,68.0953 134.893,69.9286 140.5,68C 141.899,66.9384 142.899,65.605 143.5,64C 139.637,59.8216 135.47,55.9883 131,52.5C 129.675,47.1497 131.508,43.483 136.5,41.5 Z"/></g>
<g><path style="opacity:1" fill="#052f1b" d="M 156.5,17.5 C 161.167,17.5 165.833,17.5 170.5,17.5C 170.333,33.8367 170.5,50.1701 171,66.5C 174.667,70.5 178.333,70.5 182,66.5C 182.667,62.8333 182.667,59.1667 182,55.5C 180.333,54.5 178.667,53.5 177,52.5C 176.501,48.5138 176.334,44.5138 176.5,40.5C 180.167,40.5 183.833,40.5 187.5,40.5C 187.334,45.1785 187.501,49.8452 188,54.5C 189.586,55.376 191.086,56.376 192.5,57.5C 195.019,43.7918 203.019,38.2918 216.5,41C 218.939,41.7739 220.773,43.2739 222,45.5C 225.594,42.7029 229.594,40.7029 234,39.5C 236.736,41.0772 239.57,42.4105 242.5,43.5C 242.244,41.2075 242.577,39.0408 243.5,37C 246.999,36.9006 250.332,37.734 253.5,39.5C 256.246,38.9037 257.08,37.2371 256,34.5C 250.972,28.5371 251.639,27.5371 258,31.5C 261.795,37.9699 260.962,43.8032 255.5,49C 253.5,49.6667 251.5,49.6667 249.5,49C 247.484,45.985 245.317,45.8184 243,48.5C 242.5,56.1594 242.334,63.8261 242.5,71.5C 243.5,71.5 244.5,71.5 245.5,71.5C 245.5,72.5 245.5,73.5 245.5,74.5C 240.833,74.5 236.167,74.5 231.5,74.5C 231.666,65.8269 231.5,57.1603 231,48.5C 228.289,47.0744 225.789,47.4077 223.5,49.5C 221.35,58.9276 215.35,63.5943 205.5,63.5C 208.863,69.2092 213.863,71.0425 220.5,69C 222.305,68.028 223.972,66.8613 225.5,65.5C 225.539,69.3654 223.539,72.1987 219.5,74C 207.254,78.0405 198.587,74.2071 193.5,62.5C 191.999,61.2485 190.332,60.2485 188.5,59.5C 187.679,62.4465 187.179,65.4465 187,68.5C 186.727,70.3289 185.893,71.8289 184.5,73C 177.833,75 171.167,75 164.5,73C 162.19,71.3626 160.69,69.196 160,66.5C 159.667,51.5 159.333,36.5 159,21.5C 157.294,20.6921 156.461,19.3588 156.5,17.5 Z"/></g>
<g><path style="opacity:1" fill="#5b7067" d="M 136.5,41.5 C 143.011,40.1819 149.678,40.1819 156.5,41.5C 156.376,42.1067 156.043,42.44 155.5,42.5C 149.355,41.5098 143.022,41.1765 136.5,41.5 Z"/></g>
<g><path style="opacity:1" fill="#5b7166" d="M 285.5,41.5 C 289.634,40.5151 293.968,40.1818 298.5,40.5C 298.5,41.5 298.5,42.5 298.5,43.5C 298.167,43.5 297.833,43.5 297.5,43.5C 293.971,41.5772 289.971,40.9106 285.5,41.5 Z"/></g>
<g><path style="opacity:1" fill="#05311d" d="M 42.5,39.5 C 47.4689,39.3237 51.9689,40.657 56,43.5C 60.342,40.8538 65.1753,39.8538 70.5,40.5C 70.5391,42.3588 69.7058,43.6921 68,44.5C 67.5004,51.4921 67.3337,58.4921 67.5,65.5C 71.7536,65.2753 75.4203,63.6086 78.5,60.5C 79.4941,55.544 79.8275,50.544 79.5,45.5C 77.712,45.7852 76.0453,45.4519 74.5,44.5C 75.973,41.8521 78.1397,40.1854 81,39.5C 84.4817,40.3185 87.4817,41.9851 90,44.5C 92.4296,42.3936 95.0963,40.7269 98,39.5C 106.887,41.6495 108.72,46.4828 103.5,54C 95.8722,56.8731 93.2056,54.3731 95.5,46.5C 93.6096,46.2965 92.1096,46.9632 91,48.5C 90.5003,56.1594 90.3336,63.8261 90.5,71.5C 92.3464,71.2222 93.6798,71.8888 94.5,73.5C 89.544,74.4941 84.544,74.8275 79.5,74.5C 79.6646,71.4816 79.498,68.4816 79,65.5C 75.4431,69.0247 71.6097,72.1914 67.5,75C 65.5,75.6667 63.5,75.6667 61.5,75C 58.2631,70.5063 54.9297,70.5063 51.5,75C 36.279,76.109 29.4457,68.9423 31,53.5C 32.2567,46.6213 36.0901,41.9546 42.5,39.5 Z"/></g>
<g><path style="opacity:1" fill="#03311d" d="M 285.5,41.5 C 289.971,40.9106 293.971,41.5772 297.5,43.5C 296.85,43.8039 296.183,44.1373 295.5,44.5C 294.667,57.8209 294.167,71.1542 294,84.5C 293.269,86.8987 292.102,89.0653 290.5,91C 281.748,97.2488 273.414,96.7488 265.5,89.5C 262.673,93.1589 259.34,96.3256 255.5,99C 243.511,105.477 230.678,108.644 217,108.5C 198.451,106.041 179.951,103.207 161.5,100C 136.979,96.3411 115.979,103.174 98.5,120.5C 88.6726,115.42 79.0059,110.087 69.5,104.5C 96.6977,82.9059 127.364,75.7392 161.5,83C 178.151,87.6607 194.818,92.3273 211.5,97C 226.29,99.9965 240.623,98.6631 254.5,93C 259.657,90.3488 262.657,86.1821 263.5,80.5C 264.833,80.5 266.167,80.5 267.5,80.5C 267.269,83.7845 268.603,86.2845 271.5,88C 282.847,88.7783 286.514,83.6117 282.5,72.5C 276.653,76.3149 270.653,76.4816 264.5,73C 258.75,67.326 256.583,60.4927 258,52.5C 263.212,39.628 271.712,36.628 283.5,43.5C 284.522,43.1445 285.189,42.4778 285.5,41.5 Z"/></g>
<g><path style="opacity:1" fill="#e9eceb" d="M 210.5,46.5 C 215.675,45.5071 217.509,47.5071 216,52.5C 213.489,56.1821 209.989,58.5154 205.5,59.5C 204.218,54.011 205.884,49.6776 210.5,46.5 Z"/></g>
<g><path style="opacity:1" fill="#f5f6f5" d="M 46.5,47.5 C 50.6838,46.7036 53.8504,48.037 56,51.5C 56.6667,55.8333 56.6667,60.1667 56,64.5C 50.5613,70.1478 45.8946,69.4811 42,62.5C 41.3333,59.1667 41.3333,55.8333 42,52.5C 43.7073,50.9625 45.2073,49.2959 46.5,47.5 Z"/></g>
<g><path style="opacity:1" fill="#f6f7f7" d="M 274.5,47.5 C 277.862,47.0695 280.695,48.0695 283,50.5C 283.667,55.5 283.667,60.5 283,65.5C 274.3,70.3956 269.467,67.729 268.5,57.5C 268.474,52.8771 270.474,49.5437 274.5,47.5 Z"/></g>
<g><path style="opacity:1" fill="#072d19" d="M 161.5,112.5 C 166.566,112.34 171.566,112.84 176.5,114C 179.064,115.481 179.064,116.981 176.5,118.5C 160.89,112.944 153.224,118.444 153.5,135C 153.258,150.722 160.591,155.888 175.5,150.5C 176.494,145.544 176.827,140.544 176.5,135.5C 177.833,135.5 179.167,135.5 180.5,135.5C 180.5,142.167 180.5,148.833 180.5,155.5C 177.054,154.293 173.721,154.46 170.5,156C 161.848,158.608 155.348,156.108 151,148.5C 148.175,140.267 147.842,131.934 150,123.5C 152.437,118.226 156.271,114.56 161.5,112.5 Z"/></g>
<g><path style="opacity:1" fill="#0b311d" d="M 272.5,166.5 C 272.666,162.486 272.499,158.486 272,154.5C 271.667,158.167 271.333,161.833 271,165.5C 270.833,159.167 270.667,152.833 270.5,146.5C 270.504,139.796 271.17,133.463 272.5,127.5C 278.595,124.729 284.595,124.895 290.5,128C 294.724,134.735 295.557,141.902 293,149.5C 288.449,156.74 282.282,158.406 274.5,154.5C 273.833,158.647 273.166,162.647 272.5,166.5 Z"/></g>
<g><path style="opacity:1" fill="#052816" d="M 202.5,125.5 C 202.5,126.5 202.5,127.5 202.5,128.5C 200.585,128.216 198.919,128.549 197.5,129.5C 195.83,129.751 194.33,130.418 193,131.5C 192.5,139.493 192.334,147.493 192.5,155.5C 191.167,155.5 189.833,155.5 188.5,155.5C 188.5,145.5 188.5,135.5 188.5,125.5C 190.484,125.383 192.15,126.05 193.5,127.5C 196.276,125.87 199.276,125.203 202.5,125.5 Z"/></g>
<g><path style="opacity:1" fill="#0b2f1b" d="M 212.5,125.5 C 228.527,123.523 235.027,130.523 232,146.5C 228.921,155.323 222.754,158.489 213.5,156C 208.378,153.946 205.545,150.113 205,144.5C 203.645,136.557 206.145,130.224 212.5,125.5 Z"/></g>
<g><path style="opacity:1" fill="#0a311d" d="M 238.5,125.5 C 239.833,125.5 241.167,125.5 242.5,125.5C 242.334,133.507 242.5,141.507 243,149.5C 244.818,151.954 247.318,152.954 250.5,152.5C 253.131,152.679 255.465,152.013 257.5,150.5C 258.498,142.193 258.831,133.86 258.5,125.5C 259.822,125.33 260.989,125.663 262,126.5C 262.5,136.161 262.666,145.828 262.5,155.5C 260.599,155.567 258.766,155.233 257,154.5C 251.022,157.478 245.355,157.144 240,153.5C 238.555,144.274 238.055,134.94 238.5,125.5 Z"/></g>
<g><path style="opacity:1" fill="#798981" d="M 272.5,126.5 C 271.5,126.5 270.5,126.5 269.5,126.5C 269.5,139.833 269.5,153.167 269.5,166.5C 268.504,153.01 268.171,139.344 268.5,125.5C 270.099,125.232 271.432,125.566 272.5,126.5 Z"/></g>
<g><path style="opacity:1" fill="#00260c" d="M 272.5,126.5 C 272.5,126.833 272.5,127.167 272.5,127.5C 271.17,133.463 270.504,139.796 270.5,146.5C 270.667,152.833 270.833,159.167 271,165.5C 271.333,161.833 271.667,158.167 272,154.5C 272.499,158.486 272.666,162.486 272.5,166.5C 271.5,166.5 270.5,166.5 269.5,166.5C 269.5,153.167 269.5,139.833 269.5,126.5C 270.5,126.5 271.5,126.5 272.5,126.5 Z"/></g>
<g><path style="opacity:1" fill="#8c9a94" d="M 202.5,125.5 C 203.434,126.568 203.768,127.901 203.5,129.5C 201.5,129.5 199.5,129.5 197.5,129.5C 198.919,128.549 200.585,128.216 202.5,128.5C 202.5,127.5 202.5,126.5 202.5,125.5 Z"/></g>
<g><path style="opacity:1" fill="#f7f8f7" d="M 214.5,128.5 C 221.624,126.972 226.124,129.639 228,136.5C 229.915,143.777 227.749,149.277 221.5,153C 215.653,154.328 211.82,152.161 210,146.5C 208.226,139.523 209.726,133.523 214.5,128.5 Z"/></g>
<g><path style="opacity:1" fill="#f8f9f9" d="M 277.5,128.5 C 288.215,129.075 292.382,134.742 290,145.5C 286.596,152.823 281.262,154.49 274,150.5C 273.333,144.167 273.333,137.833 274,131.5C 275.145,130.364 276.312,129.364 277.5,128.5 Z"/></g>
</svg>
