<?xml version="1.0" encoding="UTF-8"?>
<svg version="1.1" xmlns="http://www.w3.org/2000/svg" width="200" height="200">
<path d="M0 0 C66 0 132 0 200 0 C200 66 200 132 200 200 C134 200 68 200 0 200 C0 134 0 68 0 0 Z " fill="#FEFEFE" transform="translate(0,0)"/>
<path d="M0 0 C0.83144531 0.02255859 1.66289063 0.04511719 2.51953125 0.06835938 C4.55547353 0.12686346 6.59047945 0.21653205 8.625 0.3125 C8.67901695 3.22941525 8.71868066 6.14532724 8.75 9.0625 C8.77513672 10.3 8.77513672 10.3 8.80078125 11.5625 C8.80722656 12.36171875 8.81367187 13.1609375 8.8203125 13.984375 C8.83078613 14.7175293 8.84125977 15.45068359 8.85205078 16.20605469 C8.58175396 18.71371161 8.02640834 20.2128752 6.625 22.3125 C3.82322729 24.18256156 1.62600481 24.5553715 -1.703125 24.5078125 C-2.50234375 24.50136719 -3.3015625 24.49492188 -4.125 24.48828125 C-4.95 24.47152344 -5.775 24.45476562 -6.625 24.4375 C-7.46546875 24.42847656 -8.3059375 24.41945313 -9.171875 24.41015625 C-11.23970604 24.38665817 -13.30738995 24.35078908 -15.375 24.3125 C-15.53740455 21.24786601 -15.65604814 18.19185726 -15.75 15.125 C-15.80027344 14.26068359 -15.85054687 13.39636719 -15.90234375 12.50585938 C-16.00831177 7.89625036 -15.87171872 5.94295068 -12.9375 2.21875 C-8.88754479 -0.51895264 -4.72087425 -0.24470241 0 0 Z " fill="#605EEC" transform="translate(71.375,87.6875)"/>
<path d="M0 0 C0.80566406 0.00322266 1.61132812 0.00644531 2.44140625 0.00976562 C3.70404297 0.02233398 3.70404297 0.02233398 4.9921875 0.03515625 C5.84167969 0.03966797 6.69117187 0.04417969 7.56640625 0.04882812 C9.66669659 0.06062751 11.7669508 0.07856319 13.8671875 0.09765625 C13.92120445 3.0145715 13.96086816 5.93048349 13.9921875 8.84765625 C14.01732422 10.08515625 14.01732422 10.08515625 14.04296875 11.34765625 C14.04941406 12.146875 14.05585937 12.94609375 14.0625 13.76953125 C14.07297363 14.50268555 14.08344727 15.23583984 14.09423828 15.99121094 C13.82394146 18.49886786 13.26859584 19.99803145 11.8671875 22.09765625 C9.06541479 23.96771781 6.86819231 24.34052775 3.5390625 24.29296875 C2.73984375 24.28652344 1.940625 24.28007812 1.1171875 24.2734375 C0.2921875 24.25667969 -0.5328125 24.23992187 -1.3828125 24.22265625 C-2.22328125 24.21363281 -3.06375 24.20460937 -3.9296875 24.1953125 C-5.99751854 24.17181442 -8.06520245 24.13594533 -10.1328125 24.09765625 C-10.24110564 21.20081467 -10.32025204 18.30804606 -10.3828125 15.41015625 C-10.41632812 14.59353516 -10.44984375 13.77691406 -10.484375 12.93554688 C-10.55143266 8.79473618 -10.49128024 6.67016775 -8.2421875 3.078125 C-5.34759066 0.36042019 -3.85834935 -0.02717147 0 0 Z " fill="#963AE3" transform="translate(66.1328125,119.90234375)"/>
<path d="M0 0 C1.25393555 0.02707031 1.25393555 0.02707031 2.53320312 0.0546875 C4.58513228 0.10158874 6.63646756 0.17332589 8.6875 0.25 C8.82280844 3.31398451 8.9217407 6.37197126 9 9.4375 C9.04189453 10.30181641 9.08378906 11.16613281 9.12695312 12.05664062 C9.2090796 16.34364236 9.06941185 18.64017302 6.75 22.34375 C2.52066 24.97629837 -0.7544353 24.81237112 -5.625 24.5625 C-6.46095703 24.53994141 -7.29691406 24.51738281 -8.15820312 24.49414062 C-10.21041149 24.4355061 -12.26169202 24.34583215 -14.3125 24.25 C-14.45796783 21.00047252 -14.5466168 17.75178287 -14.625 14.5 C-14.66689453 13.57960938 -14.70878906 12.65921875 -14.75195312 11.7109375 C-14.87334945 5.00986054 -14.87334945 5.00986054 -12.375 1.625 C-8.14889385 -0.27243542 -4.57173644 -0.18763243 0 0 Z " fill="#4B6DEE" transform="translate(103.3125,87.75)"/>
<path d="M0 0 C0.88365234 0.02255859 1.76730469 0.04511719 2.67773438 0.06835938 C4.8483891 0.12702572 7.0181669 0.21670021 9.1875 0.3125 C9.29579314 3.20934158 9.37493954 6.10211019 9.4375 9 C9.48777344 10.22493164 9.48777344 10.22493164 9.5390625 11.47460938 C9.6008792 15.29179086 9.39307305 17.85463276 7.8125 21.375 C3.7329952 24.38606307 -0.13909005 23.84910479 -5.0625 23.625 C-5.99835938 23.60244141 -6.93421875 23.57988281 -7.8984375 23.55664062 C-10.20475674 23.49780595 -12.50780838 23.41567146 -14.8125 23.3125 C-14.94789281 20.41509378 -15.04676829 17.52404379 -15.125 14.625 C-15.16689453 13.80837891 -15.20878906 12.99175781 -15.25195312 12.15039062 C-15.33595049 8.00092088 -15.14374176 5.84465889 -12.90625 2.25 C-8.54406659 -0.48187244 -5.0323351 -0.24392377 0 0 Z " fill="#2B83F5" transform="translate(70.8125,55.6875)"/>
<path d="M0 0 C0.88365234 0.02707031 1.76730469 0.05414063 2.67773438 0.08203125 C4.84871114 0.15244131 7.01842529 0.26005394 9.1875 0.375 C9.30394156 3.45801416 9.37482432 6.54046123 9.4375 9.625 C9.48777344 10.93404297 9.48777344 10.93404297 9.5390625 12.26953125 C9.59625362 16.01554938 9.58583097 18.62360295 7.8125 21.96875 C3.64056915 24.20371296 -0.41635845 23.79418723 -5.0625 23.625 C-5.99835938 23.60695313 -6.93421875 23.58890625 -7.8984375 23.5703125 C-10.20417015 23.52325673 -12.50780945 23.45753713 -14.8125 23.375 C-14.9483035 20.66496573 -15.04694624 17.96181059 -15.125 15.25 C-15.16689453 14.48945312 -15.20878906 13.72890625 -15.25195312 12.9453125 C-15.33545552 9.07080154 -15.11511227 6.11137779 -12.90625 2.84375 C-8.57899149 -0.60931487 -5.3615044 -0.31185484 0 0 Z " fill="#1493F7" transform="translate(102.8125,55.625)"/>
<path d="M0 0 C0.88816406 0.01804688 1.77632812 0.03609375 2.69140625 0.0546875 C4.87870848 0.10172626 7.06379816 0.16742991 9.25 0.25 C9.35829314 3.14684158 9.43743954 6.03961019 9.5 8.9375 C9.55027344 10.16243164 9.55027344 10.16243164 9.6015625 11.41210938 C9.66369494 15.24878772 9.46333321 17.78540768 7.84375 21.3125 C3.89162837 24.26468724 0.28982544 23.79243992 -4.5 23.5625 C-5.38816406 23.53994141 -6.27632812 23.51738281 -7.19140625 23.49414062 C-9.37932812 23.43532552 -11.56379671 23.35321268 -13.75 23.25 C-13.86644156 20.16698584 -13.93732432 17.08453877 -14 14 C-14.03351563 13.12730469 -14.06703125 12.25460938 -14.1015625 11.35546875 C-14.15904378 7.59044461 -14.15855464 5.00355633 -12.34375 1.65625 C-8.31268184 -0.52926888 -4.50142491 -0.17287599 0 0 Z " fill="#059EFB" transform="translate(134.75,55.75)"/>
<path d="M0 0 C0.83144531 0.02255859 1.66289063 0.04511719 2.51953125 0.06835938 C4.55547353 0.12686346 6.59047945 0.21653205 8.625 0.3125 C8.67879226 3.27107409 8.71857093 6.22867721 8.75 9.1875 C8.76675781 10.02925781 8.78351563 10.87101562 8.80078125 11.73828125 C8.80722656 12.54394531 8.81367187 13.34960938 8.8203125 14.1796875 C8.83078613 14.92331543 8.84125977 15.66694336 8.85205078 16.43310547 C8.625 18.3125 8.625 18.3125 6.625 20.3125 C6.13 15.3625 6.13 15.3625 5.625 10.3125 C4.965 10.3125 4.305 10.3125 3.625 10.3125 C3.625 8.9925 3.625 7.6725 3.625 6.3125 C-4.44612927 4.69553747 -4.44612927 4.69553747 -11.96484375 6.34765625 C-14.09792037 9.31978241 -13.94695195 12.46422964 -14.0625 16 C-14.09666016 16.70189453 -14.13082031 17.40378906 -14.16601562 18.12695312 C-14.24829947 19.85491387 -14.3133324 21.58368072 -14.375 23.3125 C-13.49585938 23.13847656 -12.61671875 22.96445313 -11.7109375 22.78515625 C-8.5910481 22.34311103 -6.10931082 22.37184058 -3 22.75 C-2.12601563 22.85183594 -1.25203125 22.95367187 -0.3515625 23.05859375 C0.30070312 23.14238281 0.95296875 23.22617188 1.625 23.3125 C1.625 23.6425 1.625 23.9725 1.625 24.3125 C-3.985 24.3125 -9.595 24.3125 -15.375 24.3125 C-15.53740455 21.24786601 -15.65604814 18.19185726 -15.75 15.125 C-15.80027344 14.26068359 -15.85054687 13.39636719 -15.90234375 12.50585938 C-16.00831177 7.89625036 -15.87171872 5.94295068 -12.9375 2.21875 C-8.88754479 -0.51895264 -4.72087425 -0.24470241 0 0 Z " fill="#606AC9" transform="translate(71.375,87.6875)"/>
<path d="M0 0 C0.88365234 0.02707031 1.76730469 0.05414063 2.67773438 0.08203125 C4.84871114 0.15244131 7.01842529 0.26005394 9.1875 0.375 C9.30394156 3.45801416 9.37482432 6.54046123 9.4375 9.625 C9.48777344 10.93404297 9.48777344 10.93404297 9.5390625 12.26953125 C9.59625362 16.01554938 9.58583097 18.62360295 7.8125 21.96875 C3.64056915 24.20371296 -0.41635845 23.79418723 -5.0625 23.625 C-5.99835938 23.60695313 -6.93421875 23.58890625 -7.8984375 23.5703125 C-10.20417015 23.52325673 -12.50780945 23.45753713 -14.8125 23.375 C-14.9483035 20.66496573 -15.04694624 17.96181059 -15.125 15.25 C-15.16689453 14.48945312 -15.20878906 13.72890625 -15.25195312 12.9453125 C-15.33545552 9.07080154 -15.11511227 6.11137779 -12.90625 2.84375 C-8.57899149 -0.60931487 -5.3615044 -0.31185484 0 0 Z M-12.8125 5.375 C-12.95757695 8.11985593 -12.99902423 10.75980543 -12.9375 13.5 C-12.92847656 14.25410156 -12.91945313 15.00820312 -12.91015625 15.78515625 C-12.8865687 17.64857254 -12.85069719 19.51182593 -12.8125 21.375 C-8.794382 22.13212312 -5.02424825 22.48733839 -0.9375 22.4375 C0.51269531 22.42396484 0.51269531 22.42396484 1.9921875 22.41015625 C3.07886719 22.39275391 3.07886719 22.39275391 4.1875 22.375 C6.53858558 18.66678372 6.61905058 14.88894762 6.8125 10.625 C6.85117188 9.92761719 6.88984375 9.23023437 6.9296875 8.51171875 C7.02348624 6.79989182 7.10656174 5.08748318 7.1875 3.375 C4.22892591 3.32120774 1.27132279 3.28142907 -1.6875 3.25 C-2.52925781 3.23324219 -3.37101562 3.21648438 -4.23828125 3.19921875 C-5.44677734 3.18955078 -5.44677734 3.18955078 -6.6796875 3.1796875 C-7.42331543 3.16921387 -8.16694336 3.15874023 -8.93310547 3.14794922 C-11.05740235 3.2084403 -11.05740235 3.2084403 -12.8125 5.375 Z " fill="#1683CB" transform="translate(102.8125,55.625)"/>
<path d="M0 0 C0.88816406 0.01804688 1.77632812 0.03609375 2.69140625 0.0546875 C4.87870848 0.10172626 7.06379816 0.16742991 9.25 0.25 C9.35829314 3.14684158 9.43743954 6.03961019 9.5 8.9375 C9.55027344 10.16243164 9.55027344 10.16243164 9.6015625 11.41210938 C9.66369494 15.24878772 9.46333321 17.78540768 7.84375 21.3125 C3.89162837 24.26468724 0.28982544 23.79243992 -4.5 23.5625 C-5.38816406 23.53994141 -6.27632812 23.51738281 -7.19140625 23.49414062 C-9.37932812 23.43532552 -11.56379671 23.35321268 -13.75 23.25 C-13.86644156 20.16698584 -13.93732432 17.08453877 -14 14 C-14.03351563 13.12730469 -14.06703125 12.25460938 -14.1015625 11.35546875 C-14.15904378 7.59044461 -14.15855464 5.00355633 -12.34375 1.65625 C-8.31268184 -0.52926888 -4.50142491 -0.17287599 0 0 Z M-8.75 3.25 C-8.75 3.91 -8.75 4.57 -8.75 5.25 C-9.74 5.58 -10.73 5.91 -11.75 6.25 C-12.44867643 13.41123701 -12.44867643 13.41123701 -9.8125 19.875 C-6.18201111 22.69048118 -4.37765683 22.81276027 0.06640625 22.55859375 C2.18222741 22.25957788 4.19056038 21.81506167 6.25 21.25 C7.54283945 15.51302493 8.62619454 10.14371452 8.25 4.25 C7.06147145 2.83225162 7.06147145 2.83225162 3.65234375 3.15234375 C2.16403133 3.1590178 0.67573568 3.17097817 -0.8125 3.1875 C-1.95041992 3.19426758 -1.95041992 3.19426758 -3.11132812 3.20117188 C-4.99091871 3.2129932 -6.87046899 3.23092922 -8.75 3.25 Z " fill="#1B87C9" transform="translate(134.75,55.75)"/>
<path d="M0 0 C0.88365234 0.02255859 1.76730469 0.04511719 2.67773438 0.06835938 C4.8483891 0.12702572 7.0181669 0.21670021 9.1875 0.3125 C9.29579314 3.20934158 9.37493954 6.10211019 9.4375 9 C9.48777344 10.22493164 9.48777344 10.22493164 9.5390625 11.47460938 C9.6008792 15.29179086 9.39307305 17.85463276 7.8125 21.375 C3.7329952 24.38606307 -0.13909005 23.84910479 -5.0625 23.625 C-5.99835938 23.60244141 -6.93421875 23.57988281 -7.8984375 23.55664062 C-10.20475674 23.49780595 -12.50780838 23.41567146 -14.8125 23.3125 C-14.94789281 20.41509378 -15.04676829 17.52404379 -15.125 14.625 C-15.16689453 13.80837891 -15.20878906 12.99175781 -15.25195312 12.15039062 C-15.33595049 8.00092088 -15.14374176 5.84465889 -12.90625 2.25 C-8.54406659 -0.48187244 -5.0323351 -0.24392377 0 0 Z M-11.8046875 3.35546875 C-13.38671867 6.42755253 -13.16441802 9.50852053 -13.0625 12.875 C-13.05734375 13.56013672 -13.0521875 14.24527344 -13.046875 14.95117188 C-13.02622122 18.75941486 -13.02622122 18.75941486 -11.8125 22.3125 C-7.1925 22.3125 -2.5725 22.3125 2.1875 22.3125 C2.1875 21.6525 2.1875 20.9925 2.1875 20.3125 C2.8475 20.3125 3.5075 20.3125 4.1875 20.3125 C7.06765397 16.53754092 7.55292021 13.74856047 7.4375 9.0625 C7.42203125 8.00546875 7.4065625 6.9484375 7.390625 5.859375 C7.46986635 3.378649 7.46986635 3.378649 6.1875 2.3125 C3.54820903 2.15898419 0.95310041 2.08086939 -1.6875 2.0625 C-2.42097656 2.041875 -3.15445313 2.02125 -3.91015625 2 C-6.81247546 1.97885378 -9.20028274 1.99198626 -11.8046875 3.35546875 Z " fill="#4A76C6" transform="translate(70.8125,55.6875)"/>
<path d="M0 0 C1.25393555 0.02707031 1.25393555 0.02707031 2.53320312 0.0546875 C4.58513228 0.10158874 6.63646756 0.17332589 8.6875 0.25 C8.82280844 3.31398451 8.9217407 6.37197126 9 9.4375 C9.04189453 10.30181641 9.08378906 11.16613281 9.12695312 12.05664062 C9.2090796 16.34364236 9.06941185 18.64017302 6.75 22.34375 C2.52066 24.97629837 -0.7544353 24.81237112 -5.625 24.5625 C-6.46095703 24.53994141 -7.29691406 24.51738281 -8.15820312 24.49414062 C-10.21041149 24.4355061 -12.26169202 24.34583215 -14.3125 24.25 C-14.45796783 21.00047252 -14.5466168 17.75178287 -14.625 14.5 C-14.66689453 13.57960938 -14.70878906 12.65921875 -14.75195312 11.7109375 C-14.87334945 5.00986054 -14.87334945 5.00986054 -12.375 1.625 C-8.14889385 -0.27243542 -4.57173644 -0.18763243 0 0 Z M-12.375 3.71875 C-13.77328572 7.49412144 -13.62897168 11.01179875 -13.5 15 C-13.48646484 15.79277344 -13.47292969 16.58554688 -13.45898438 17.40234375 C-13.42375223 19.35185564 -13.36994821 21.30101626 -13.3125 23.25 C-10.85376232 23.10941524 -8.39564825 22.96277001 -5.9375 22.8125 C-5.23882812 22.77318359 -4.54015625 22.73386719 -3.8203125 22.69335938 C0.06110492 22.50719866 0.06110492 22.50719866 3.6875 21.25 C3.6875 20.59 3.6875 19.93 3.6875 19.25 C4.3475 19.25 5.0075 19.25 5.6875 19.25 C5.6875 18.59 5.6875 17.93 5.6875 17.25 C6.3475 17.25 7.0075 17.25 7.6875 17.25 C7.6875 12.3 7.6875 7.35 7.6875 2.25 C4.74902347 2.142166 1.81448849 2.06278084 -1.125 2 C-1.95837891 1.96648437 -2.79175781 1.93296875 -3.65039062 1.8984375 C-8.31034173 1.75248365 -8.31034173 1.75248365 -12.375 3.71875 Z " fill="#5870BB" transform="translate(103.3125,87.75)"/>
<path d="M0 0 C1.33224609 0.03383789 1.33224609 0.03383789 2.69140625 0.06835938 C4.87932812 0.12717448 7.06379671 0.20928732 9.25 0.3125 C9.25 1.3025 9.25 2.2925 9.25 3.3125 C7.98542969 3.34988281 6.72085938 3.38726562 5.41796875 3.42578125 C3.7577827 3.49143833 2.09762778 3.55788576 0.4375 3.625 C-0.39587891 3.64755859 -1.22925781 3.67011719 -2.08789062 3.69335938 C-2.89033203 3.72880859 -3.69277344 3.76425781 -4.51953125 3.80078125 C-5.25792236 3.82696533 -5.99631348 3.85314941 -6.75708008 3.88012695 C-9.29699835 4.43117378 -10.20147874 5.24621431 -11.75 7.3125 C-12.12881784 9.95844138 -12.35019565 12.34950773 -12.4375 15 C-12.540625 17.413125 -12.64375 19.82625 -12.75 22.3125 C-7.47 22.3125 -2.19 22.3125 3.25 22.3125 C3.25 22.6425 3.25 22.9725 3.25 23.3125 C-2.36 23.3125 -7.97 23.3125 -13.75 23.3125 C-13.85829314 20.41565842 -13.93743954 17.52288981 -14 14.625 C-14.03351562 13.80837891 -14.06703125 12.99175781 -14.1015625 12.15039062 C-14.16369494 8.31371228 -13.96333321 5.77709232 -12.34375 2.25 C-8.39162837 -0.70218724 -4.78982544 -0.22993992 0 0 Z " fill="#8043BD" transform="translate(69.75,120.6875)"/>
<path d="M0 0 C0.66 0.33 1.32 0.66 2 1 C1.35546875 1.48984375 0.7109375 1.9796875 0.046875 2.484375 C-2.73090828 5.89829185 -2.6666488 9.03310966 -2.75 13.25 C-2.8325 15.8075 -2.915 18.365 -3 21 C2.61 21.33 8.22 21.66 14 22 C14.33 21.01 14.66 20.02 15 19 C15.66 19 16.32 19 17 19 C17 18.34 17 17.68 17 17 C17.66 17 18.32 17 19 17 C17.25 21.875 17.25 21.875 15 23 C13.47851674 23.08372659 11.95344222 23.10730027 10.4296875 23.09765625 C9.53378906 23.09443359 8.63789062 23.09121094 7.71484375 23.08789062 C6.77769531 23.07951172 5.84054688 23.07113281 4.875 23.0625 C3.93011719 23.05798828 2.98523438 23.05347656 2.01171875 23.04882812 C-0.32558387 23.03702357 -2.66276061 23.02055759 -5 23 C-5.1358035 20.28996573 -5.23444624 17.58681059 -5.3125 14.875 C-5.35439453 14.11445312 -5.39628906 13.35390625 -5.43945312 12.5703125 C-5.53121736 8.31245197 -5.26200485 5.78315583 -2.48046875 2.4453125 C-1.66191406 1.63835938 -0.84335938 0.83140625 0 0 Z " fill="#5191CC" transform="translate(93,56)"/>
<path d="M0 0 C5.94 0 11.88 0 18 0 C18.04125 2.8875 18.0825 5.775 18.125 8.75 C18.14320801 9.65331055 18.16141602 10.55662109 18.18017578 11.48730469 C18.1851709 12.20821289 18.19016602 12.92912109 18.1953125 13.671875 C18.20578613 14.4050293 18.21625977 15.13818359 18.22705078 15.89355469 C17.963077 18.34255015 17.31087086 19.92202693 16 22 C13.875 22.75 13.875 22.75 12 23 C12.66 22.01 13.32 21.02 14 20 C14.30066154 17.24582682 14.50925299 14.57354853 14.625 11.8125 C14.68300781 10.68811523 14.68300781 10.68811523 14.7421875 9.54101562 C14.83628216 7.69440801 14.91922319 5.8472381 15 4 C15.66 4 16.32 4 17 4 C17 3.01 17 2.02 17 1 C11.39 1 5.78 1 0 1 C0 0.67 0 0.34 0 0 Z " fill="#9467CD" transform="translate(62,120)"/>
<path d="M0 0 C0.84498047 0.01804687 1.68996094 0.03609375 2.56054688 0.0546875 C4.64501573 0.10179414 6.72890144 0.17353767 8.8125 0.25 C8.4825 1.24 8.1525 2.23 7.8125 3.25 C1.8725 3.25 -4.0675 3.25 -10.1875 3.25 C-10.1875 9.19 -10.1875 15.13 -10.1875 21.25 C-10.8475 21.25 -11.5075 21.25 -12.1875 21.25 C-12.26857646 18.49940619 -12.32802813 15.75120979 -12.375 13 C-12.40013672 12.22269531 -12.42527344 11.44539063 -12.45117188 10.64453125 C-12.49305167 7.37790712 -12.39089333 4.799162 -11.25 1.71875 C-7.80204721 -0.73661032 -4.10644333 -0.16514699 0 0 Z " fill="#426AD7" transform="translate(102.1875,89.75)"/>
<path d="M0 0 C2.64590014 -0.02684679 5.29153096 -0.04676357 7.9375 -0.0625 C8.69224609 -0.07087891 9.44699219 -0.07925781 10.22460938 -0.08789062 C12.14994313 -0.09652441 14.07535581 -0.05224333 16 0 C17 1 17 1 17.09765625 3.72265625 C17.08605469 4.82480469 17.07445313 5.92695312 17.0625 7.0625 C17.05347656 8.16722656 17.04445313 9.27195312 17.03515625 10.41015625 C17.02355469 11.26480469 17.01195313 12.11945313 17 13 C15 11 15 11 14.8046875 9.0546875 C14.86979167 7.03645833 14.93489583 5.01822917 15 3 C14.39671875 3.09539063 13.7934375 3.19078125 13.171875 3.2890625 C11.97304687 3.45535156 11.97304687 3.45535156 10.75 3.625 C9.96109375 3.74101563 9.1721875 3.85703125 8.359375 3.9765625 C5.66567675 4.00332109 4.34537043 3.23282292 2 2 C1.01 2.495 1.01 2.495 0 3 C0 2.01 0 1.02 0 0 Z " fill="#2086E6" transform="translate(61,58)"/>
<path d="M0 0 C2.64590014 -0.02684679 5.29153096 -0.04676357 7.9375 -0.0625 C8.69224609 -0.07087891 9.44699219 -0.07925781 10.22460938 -0.08789062 C12.14994313 -0.09652441 14.07535581 -0.05224333 16 0 C16.33 0.33 16.66 0.66 17 1 C16.93545826 3.29416553 16.79816087 5.5864685 16.625 7.875 C16.53476563 9.13054687 16.44453125 10.38609375 16.3515625 11.6796875 C16 15 16 15 15 18 C12.1085914 19.1194613 9.32237388 19.10768197 6.25 19.0625 C5.45078125 19.05347656 4.6515625 19.04445313 3.828125 19.03515625 C3.22484375 19.02355469 2.6215625 19.01195313 2 19 C2 18.67 2 18.34 2 18 C3.953125 17.86979167 5.90625 17.73958333 7.859375 17.609375 C10.88820959 16.74715202 12.10199345 15.49737705 14 13 C14.69397449 9.96777222 14.69397449 9.96777222 14.75 6.75 C14.8325 4.8525 14.915 2.955 15 1 C10.05 1 5.1 1 0 1 C0 0.67 0 0.34 0 0 Z " fill="#0897EC" transform="translate(126,59)"/>
<path d="M0 0 C0 1.8542837 -0.01728701 3.70876759 -0.0625 5.5625 C-0.17218753 8.00907507 -0.17218753 8.00907507 1 10 C1.0396713 11.66619446 1.04384447 13.33391013 1 15 C4.21182149 16.90608098 6.53882603 17.22266247 10.25 17.125 C11.58804688 17.09792969 11.58804688 17.09792969 12.953125 17.0703125 C13.62859375 17.04710938 14.3040625 17.02390625 15 17 C15 17.66 15 18.32 15 19 C13.29175867 19.02735618 11.58338595 19.04655506 9.875 19.0625 C8.92367187 19.07410156 7.97234375 19.08570312 6.9921875 19.09765625 C3.91439143 18.99720599 1.02311643 18.56963767 -2 18 C-2.05382106 15.37472811 -2.09358313 12.75055287 -2.125 10.125 C-2.14175781 9.37863281 -2.15851563 8.63226563 -2.17578125 7.86328125 C-2.1933959 5.90805539 -2.10320189 3.95257979 -2 2 C-1.34 1.34 -0.68 0.68 0 0 Z " fill="#2485E7" transform="translate(92,59)"/>
<path d="M0 0 C0.33 0 0.66 0 1 0 C1.05390357 2.93774463 1.0936255 5.87450232 1.125 8.8125 C1.14175781 9.64587891 1.15851563 10.47925781 1.17578125 11.33789062 C1.18222656 12.14033203 1.18867187 12.94277344 1.1953125 13.76953125 C1.20578613 14.50792236 1.21625977 15.24631348 1.22705078 16.00708008 C1 18 1 18 -1 21 C-3.625 21.1875 -3.625 21.1875 -6 21 C-5.34 20.67 -4.68 20.34 -4 20 C-2.14549697 16.29099393 -1.67962486 12.98597104 -1.4375 8.875 C-1.23891481 5.62468726 -1.03286337 3.09859011 0 0 Z " fill="#498AD6" transform="translate(79,56)"/>
<path d="M0 0 C0.33 0 0.66 0 1 0 C1 2.64 1 5.28 1 8 C-3.77573323 10.61895048 -7.84434881 9.83119431 -13 9 C-8.96707255 6.7655402 -5.55032566 6.45503257 -1 6 C-0.67 4.02 -0.34 2.04 0 0 Z " fill="#695AD7" transform="translate(77,102)"/>
<path d="M0 0 C0.33 0 0.66 0 1 0 C1.33 5.28 1.66 10.56 2 16 C1.01 16 0.02 16 -1 16 C-1.02685095 13.52076199 -1.04676547 11.0418116 -1.0625 8.5625 C-1.07506836 7.50192383 -1.07506836 7.50192383 -1.08789062 6.41992188 C-1.09653588 4.61306441 -1.05220011 2.80612397 -1 1 C-0.67 0.67 -0.34 0.34 0 0 Z " fill="#6654D6" transform="translate(58,95)"/>
<path d="M0 0 C0.33 0.66 0.66 1.32 1 2 C1.66 2.33 2.32 2.66 3 3 C2.67 4.65 2.34 6.3 2 8 C2.99 7.67 3.98 7.34 5 7 C7.48046875 7.33984375 7.48046875 7.33984375 10.1875 7.9375 C11.08855469 8.13214844 11.98960938 8.32679687 12.91796875 8.52734375 C13.94857422 8.76130859 13.94857422 8.76130859 15 9 C15 9.33 15 9.66 15 10 C10.38 10 5.76 10 1 10 C-0.60725635 6.78548731 -0.05748185 3.56387464 0 0 Z " fill="#3C77E7" transform="translate(58,68)"/>
<path d="M0 0 C5.28 0 10.56 0 16 0 C16 0.99 16 1.98 16 3 C10.72 2.67 5.44 2.34 0 2 C0 1.34 0 0.68 0 0 Z " fill="#1E75B7" transform="translate(63,56)"/>
<path d="M0 0 C2.71067128 5.42134255 3.11698159 8.91695707 3 15 C2.01 15 1.02 15 0 15 C0 10.05 0 5.1 0 0 Z " fill="#9433CF" transform="translate(57,128)"/>
<path d="M0 0 C1.18613892 0.00785522 1.18613892 0.00785522 2.39624023 0.01586914 C3.67724609 0.02070312 3.67724609 0.02070312 4.98413086 0.02563477 C5.88196289 0.03401367 6.77979492 0.04239258 7.70483398 0.05102539 C8.6065332 0.05553711 9.50823242 0.06004883 10.43725586 0.06469727 C12.67234712 0.07652315 14.90730835 0.09300319 17.14233398 0.11352539 C17.14233398 1.10352539 17.14233398 2.09352539 17.14233398 3.11352539 C16.15233398 2.78352539 15.16233398 2.45352539 14.14233398 2.11352539 C4.12656965 1.37156625 4.12656965 1.37156625 -4.85766602 5.11352539 C-2.45600418 0.15009094 -2.45600418 0.15009094 0 0 Z " fill="#6945A5" transform="translate(61.857666015625,120.886474609375)"/>
<path d="M0 0 C0.99 0.33 1.98 0.66 3 1 C0.375 5.875 0.375 5.875 -3 7 C-4.89952346 6.91478259 -6.79663573 6.76270916 -8.6875 6.5625 C-9.68136719 6.46066406 -10.67523438 6.35882813 -11.69921875 6.25390625 C-12.45847656 6.17011719 -13.21773438 6.08632812 -14 6 C-14 5.67 -14 5.34 -14 5 C-8.06 4.505 -8.06 4.505 -2 4 C-2 3.34 -2 2.68 -2 2 C-1.34 2 -0.68 2 0 2 C0 1.34 0 0.68 0 0 Z " fill="#5B67D4" transform="translate(109,105)"/>
<path d="M0 0 C0.66 0 1.32 0 2 0 C0.25 4.875 0.25 4.875 -2 6 C-4.5132797 6.12393466 -6.98670114 6.18515112 -9.5 6.1875 C-10.18964844 6.19974609 -10.87929687 6.21199219 -11.58984375 6.22460938 C-13.39477494 6.22988695 -15.19917842 6.12184458 -17 6 C-17.66 5.34 -18.32 4.68 -19 4 C-13.72 4.33 -8.44 4.66 -3 5 C-2.67 4.01 -2.34 3.02 -2 2 C-1.34 2 -0.68 2 0 2 C0 1.34 0 0.68 0 0 Z " fill="#3883D1" transform="translate(110,73)"/>
<path d="M0 0 C0 0.66 0 1.32 0 2 C-0.66 2 -1.32 2 -2 2 C-2.33 2.99 -2.66 3.98 -3 5 C-3.66 5 -4.32 5 -5 5 C-4.67 10.28 -4.34 15.56 -4 21 C-4.66 21 -5.32 21 -6 21 C-6.107834 18.06152347 -6.18721916 15.12698849 -6.25 12.1875 C-6.28351562 11.35412109 -6.31703125 10.52074219 -6.3515625 9.66210938 C-6.45064212 3.49440283 -6.45064212 3.49440283 -4.109375 0.92578125 C-2 0 -2 0 0 0 Z " fill="#3B75C4" transform="translate(63,56)"/>
<path d="M0 0 C0.33 0 0.66 0 1 0 C1.02578125 0.59167969 1.0515625 1.18335937 1.078125 1.79296875 C1.45704414 7.0720013 2.10636661 10.10636661 6 14 C4.02 14 2.04 14 0 14 C0 9.38 0 4.76 0 0 Z " fill="#1392EA" transform="translate(122,63)"/>
<path d="M0 0 C0 0.66 0 1.32 0 2 C-2.64 2.66 -5.28 3.32 -8 4 C-8.33 5.32 -8.66 6.64 -9 8 C-9.22223194 5.25913944 -9.34781139 3.56036279 -7.875 1.1875 C-5.22464043 -0.49106106 -3.06753576 -0.20450238 0 0 Z " fill="#893FE0" transform="translate(67,124)"/>
<path d="M0 0 C1.4540625 0.0309375 1.4540625 0.0309375 2.9375 0.0625 C2.9375 1.3825 2.9375 2.7025 2.9375 4.0625 C1.2875 4.0625 -0.3625 4.0625 -2.0625 4.0625 C-2.0625 3.4025 -2.0625 2.7425 -2.0625 2.0625 C-2.7225 1.7325 -3.3825 1.4025 -4.0625 1.0625 C-3.0625 0.0625 -3.0625 0.0625 0 0 Z " fill="#8246E4" transform="translate(74.0625,123.9375)"/>
</svg>
