<?xml version="1.0" encoding="UTF-8"?>
<svg version="1.1" xmlns="http://www.w3.org/2000/svg" width="892" height="464">
<path d="M0 0 C294.36 0 588.72 0 892 0 C892 153.12 892 306.24 892 464 C597.64 464 303.28 464 0 464 C0 310.88 0 157.76 0 0 Z " fill="#004C88" transform="translate(0,0)"/>
<path d="M0 0 C1.74956329 0.24787313 3.49834933 0.50133016 5.24609375 0.76171875 C6.58824943 0.90382935 7.93067244 1.04345501 9.2734375 1.1796875 C23.84431654 3.28384267 38.61388634 10.66388571 49.24609375 20.76171875 C50.14457031 21.57125 51.04304687 22.38078125 51.96875 23.21484375 C68.14877886 38.43786952 77.94843638 58.98072289 78.72070312 81.27563477 C78.95346915 104.6395246 69.82039887 125.50300459 54.24609375 142.76171875 C38.41864132 158.84308753 17.59061934 167.08255384 -4.75390625 167.76171875 C-3.50294098 163.67871747 -1.99918187 160.15290189 0.16015625 156.47265625 C1.0428418 154.95696045 1.0428418 154.95696045 1.94335938 153.41064453 C2.57951172 152.33024902 3.21566406 151.24985352 3.87109375 150.13671875 C4.87994166 148.40673689 5.88876883 146.67674264 6.89654541 144.94613647 C7.59850298 143.74103209 8.30110892 142.53630517 9.0043335 141.3319397 C12.96563338 134.54391975 16.85603011 127.71572512 20.74609375 120.88671875 C22.63631002 117.569283 24.52603417 114.25348849 26.45556641 110.95874023 C28.3030863 107.75659655 28.3030863 107.75659655 29.86083984 104.26977539 C31.43159974 101.0460181 32.81615917 98.40208308 35.24609375 95.76171875 C38.26070353 94.99072462 40.51966332 95.15292717 43.59503174 95.55834961 C49.05304 96.20954821 53.97327871 96.54652848 59.24609375 94.76171875 C62.59264844 91.35273677 64.48285154 87.47520495 66.51953125 83.1875 C67.08373779 82.09586548 67.64794434 81.00423096 68.22924805 79.8795166 C69.61095458 77.19172296 70.94627796 74.48980407 72.24609375 71.76171875 C64.07369867 71.49731494 55.90675243 71.32664562 47.73052406 71.27206326 C43.93239889 71.24383595 40.14026485 71.18466266 36.34423828 71.05200195 C20.39303903 69.79335208 20.39303903 69.79335208 5.90563965 74.42608643 C2.43285792 78.32974215 0.43131211 82.66547387 -1.01309204 87.65834045 C-1.75390625 89.76171875 -1.75390625 89.76171875 -4.75390625 94.76171875 C8.11609375 95.25671875 8.11609375 95.25671875 21.24609375 95.76171875 C19.79486922 99.38978009 18.3706519 102.50400659 16.48046875 105.875 C15.92705811 106.8637915 15.37364746 107.85258301 14.8034668 108.87133789 C14.20703369 109.92828857 13.61060059 110.98523926 12.99609375 112.07421875 C12.0676062 113.72635376 12.0676062 113.72635376 11.12036133 115.41186523 C6.22361598 124.09636712 1.22147118 132.7174503 -3.82177734 141.31762695 C-8.56524513 149.41105877 -13.19610864 157.56250611 -17.75390625 165.76171875 C-38.59395637 165.30231885 -54.29540908 153.37862833 -68.296875 139.18359375 C-83.07846696 123.43637015 -88.82366941 104.87109243 -89.00390625 83.63671875 C-89.01341309 82.71818115 -89.02291992 81.79964355 -89.03271484 80.85327148 C-88.92486663 58.56663876 -79.14926874 39.59821223 -64.06640625 23.57421875 C-55.77587976 15.566909 -44.77397116 8.31262855 -33.75390625 4.76171875 C-33.09390625 5.09171875 -32.43390625 5.42171875 -31.75390625 5.76171875 C-39.94250437 20.14388639 -48.15813882 34.50751691 -56.51635742 48.79199219 C-61.55242936 57.40230519 -66.5408991 66.03949714 -71.51782227 74.68408203 C-75.57244484 81.72451901 -79.66003967 88.74366175 -83.75390625 95.76171875 C-62.30390625 95.76171875 -40.85390625 95.76171875 -18.75390625 95.76171875 C-18.09390625 94.11171875 -17.43390625 92.46171875 -16.75390625 90.76171875 C-13.45390625 84.82171875 -10.15390625 78.88171875 -6.75390625 72.76171875 C-31.00890625 72.26671875 -31.00890625 72.26671875 -55.75390625 71.76171875 C-54.30268172 68.13365741 -52.8784644 65.01943091 -50.98828125 61.6484375 C-50.43495117 60.65972656 -49.88162109 59.67101562 -49.31152344 58.65234375 C-48.41675293 57.06679687 -48.41675293 57.06679687 -47.50390625 55.44921875 C-46.88418945 54.34707031 -46.26447266 53.24492187 -45.62597656 52.109375 C-40.74108111 43.44922718 -35.83090665 34.79947401 -30.71020508 26.27612305 C-28.00429768 21.75822071 -25.48303319 17.31739313 -23.390625 12.48046875 C-18.06370964 0.67442495 -12.87976374 -1.38747037 0 0 Z " fill="#014D88" transform="translate(451.75390625,76.23828125)"/>
<path d="M0 0 C1.70542969 -0.00483398 1.70542969 -0.00483398 3.4453125 -0.00976562 C29.38408671 0.15383903 52.26850578 10.63266787 70.734375 28.609375 C90.38091333 49.33986027 98.1103915 74.85752322 97.45947266 102.96875 C96.60859188 126.57700275 83.57871827 150.29546602 66.67578125 166.3515625 C45.20554677 184.65047202 19.57970239 193.15238401 -8.625 191.3125 C-33.16081884 188.54937179 -56.18753443 176.06447976 -72.30078125 157.34765625 C-81.4363795 145.41763971 -87.93534672 132.8971348 -91.625 118.3125 C-91.81642578 117.56178223 -92.00785156 116.81106445 -92.20507812 116.03759766 C-97.24197665 93.96755743 -94.05962233 71.17356858 -83.625 51.3125 C-82.85542969 49.81976563 -82.85542969 49.81976563 -82.0703125 48.296875 C-70.22951549 26.6548441 -50.13647582 10.70609368 -26.625 3.3125 C-17.65833896 0.73991146 -9.30603019 -0.13279153 0 0 Z M-8.625 12.3125 C-9.18876343 13.28968994 -9.18876343 13.28968994 -9.76391602 14.28662109 C-10.56333618 15.67228271 -10.56333618 15.67228271 -11.37890625 17.0859375 C-11.97872314 18.12564697 -12.57854004 19.16535645 -13.1965332 20.23657227 C-14.54002683 22.56523964 -15.88360035 24.8938607 -17.22729492 27.22241211 C-20.6902474 33.22379918 -24.15172393 39.22602544 -27.609375 45.23046875 C-28.88538178 47.4453326 -30.16142281 49.66017671 -31.4375 51.875 C-32.05705566 52.95120605 -32.67661133 54.02741211 -33.31494141 55.13623047 C-36.11372466 59.99068461 -38.92495274 64.83609315 -41.7890625 69.65234375 C-42.26239014 70.44890381 -42.73571777 71.24546387 -43.22338867 72.06616211 C-44.0892552 73.5186394 -44.95895536 74.96884118 -45.83325195 76.41625977 C-47.92946006 79.63882422 -47.92946006 79.63882422 -48.625 83.3125 C-24.37 83.8075 -24.37 83.8075 0.375 84.3125 C-3.585 91.2425 -7.545 98.1725 -11.625 105.3125 C-11.625 105.9725 -11.625 106.6325 -11.625 107.3125 C-33.075 107.3125 -54.525 107.3125 -76.625 107.3125 C-54.125 68.3125 -54.125 68.3125 -50.40625 61.8671875 C-48.13957181 57.9383575 -45.87342761 54.00922062 -43.60803223 50.07965088 C-42.59880896 48.32908759 -41.58946164 46.57859589 -40.58007812 44.828125 C-39.3233234 42.64857835 -38.06679414 40.46890168 -36.81054688 38.2890625 C-32.77083558 31.28388717 -28.7056316 24.29391493 -24.625 17.3125 C-25.285 16.9825 -25.945 16.6525 -26.625 16.3125 C-29.1852705 17.37348577 -31.6000031 18.49251877 -34.0625 19.75 C-35.1445874 20.30034912 -35.1445874 20.30034912 -36.24853516 20.86181641 C-56.73034413 31.52914021 -72.30855707 49.2959788 -79.375 71.4375 C-85.66266551 92.5669806 -82.2571083 117.2047381 -71.9921875 136.359375 C-67.93933735 143.0324399 -63.00375789 148.68176426 -57.625 154.3125 C-57.08488281 154.92738281 -56.54476562 155.54226562 -55.98828125 156.17578125 C-46.09645646 167.01443058 -30.90729384 174.6037891 -16.625 177.3125 C-14.62517732 177.33913202 -12.62476001 177.3434822 -10.625 177.3125 C-10.27421387 176.68085938 -9.92342773 176.04921875 -9.56201172 175.3984375 C-2.95580453 163.51710861 3.69714233 151.67140328 10.5625 139.9375 C11.13645508 138.9563623 11.71041016 137.97522461 12.30175781 136.96435547 C14.5500397 133.12540455 16.80132306 129.288234 19.05615234 125.453125 C20.62451018 122.78342108 22.18766516 120.1107316 23.75 117.4375 C24.22074951 116.64037598 24.69149902 115.84325195 25.17651367 115.02197266 C27.52588679 111.4084561 27.52588679 111.4084561 28.375 107.3125 C15.505 106.8175 15.505 106.8175 2.375 106.3125 C9.28850531 89.40202959 9.28850531 89.40202959 15.375 84.3125 C24.9688692 80.74349704 35.87713191 81.83123473 45.93560791 82.33831787 C49.70891146 82.50450891 53.48345491 82.54334137 57.25976562 82.59375 C64.63836513 82.71060894 72.00322634 82.96604839 79.375 83.3125 C77.52874294 87.18220976 75.58238868 90.99230998 73.61328125 94.80078125 C73.09221802 95.89620239 72.57115479 96.99162354 72.03430176 98.12023926 C70.36736578 101.27229705 68.89685254 103.78575073 66.375 106.3125 C62.28986555 107.41532932 58.71752244 107.08693894 54.5625 106.5 C48.38517528 106.06303235 48.38517528 106.06303235 42.375 107.3125 C35.63989682 113.67616196 32.0505538 123.10514456 28.22949219 131.41943359 C25.37881954 137.53546701 21.87941102 143.26475961 18.4375 149.0625 C17.20514515 151.19086551 15.97586733 153.3210163 14.75 155.453125 C13.89148438 156.94295898 13.89148438 156.94295898 13.015625 158.46289062 C10.64818918 162.57490117 8.28300219 166.6879313 5.9375 170.8125 C5.37977905 171.78268066 5.37977905 171.78268066 4.81079102 172.77246094 C2.95599291 175.84919014 2.95599291 175.84919014 2.375 179.3125 C26.85286663 178.885786 47.25756175 168.91121455 64.125 151.46875 C74.87181386 139.28029038 80.51408424 125.92186757 84.375 110.3125 C84.57609375 109.51585937 84.7771875 108.71921875 84.984375 107.8984375 C88.35874988 85.56007581 82.24971831 64.92094455 69.625 46.5625 C56.39034849 29.36522289 38.24225667 16.51741756 16.58203125 12.734375 C8.24732171 11.72410718 -0.24994457 12.07653182 -8.625 12.3125 Z " fill="#FBFBFD" transform="translate(444.625,64.6875)"/>
<path d="M0 0 C4.53897705 -0.02465392 9.07791543 -0.04283789 13.61694336 -0.05493164 C15.16219766 -0.0599714 16.70744716 -0.0668032 18.25268555 -0.07543945 C20.46925029 -0.08752076 22.68575218 -0.09323173 24.90234375 -0.09765625 C25.5971434 -0.10281754 26.29194305 -0.10797882 27.00779724 -0.11329651 C28.6722933 -0.11349277 30.33665499 -0.06189129 32 0 C33.63591024 1.63591024 33.35936013 3.60518644 33.57250977 5.86425781 C33.67253799 6.9033429 33.77256622 7.94242798 33.87562561 9.01300049 C33.97983322 10.14824158 34.08404083 11.28348267 34.19140625 12.453125 C34.30097153 13.61946472 34.4105368 14.78580444 34.52342224 15.98748779 C34.75511248 18.46898629 34.98445486 20.95070492 35.21166992 23.43261719 C35.55724511 27.19282153 35.91384275 30.95186414 36.27148438 34.7109375 C36.49546901 37.12493725 36.71879607 39.53899812 36.94140625 41.953125 C37.04763809 43.06407532 37.15386993 44.17502563 37.26332092 45.31964111 C37.94505986 52.89810901 38.11870248 60.39272379 38 68 C38.66 68 39.32 68 40 68 C40.21527344 67.21367187 40.43054688 66.42734375 40.65234375 65.6171875 C42.44827747 60.79679729 44.97830213 56.56192386 47.5625 52.125 C54.0545261 40.82575871 60.18563089 29.35495319 66.26196289 17.82861328 C66.61343384 17.16258087 66.96490479 16.49654846 67.32702637 15.81033325 C68.28344235 13.99676333 69.23762697 12.18201716 70.19165039 10.3671875 C72.06580649 6.87746685 74.03472538 3.43923058 76 0 C86.56 0 97.12 0 108 0 C107.41772596 4.65819228 106.85895947 9.08642108 105.94921875 13.65234375 C105.7473999 14.6671582 105.54558105 15.68197266 105.33764648 16.72753906 C105.12309814 17.78682617 104.9085498 18.84611328 104.6875 19.9375 C104.46457275 21.04706055 104.24164551 22.15662109 104.01196289 23.29980469 C102.62007774 30.15537325 101.10282144 36.96497869 99.44775391 43.76098633 C98.14559925 49.18576 97.08109753 54.64051751 96.0625 60.125 C94.59848118 68.00642395 93.00907724 75.85271 91.3125 83.6875 C91.09795166 84.68604004 90.88340332 85.68458008 90.66235352 86.71337891 C90.46053467 87.63683105 90.25871582 88.5602832 90.05078125 89.51171875 C89.87200439 90.33115967 89.69322754 91.15060059 89.5090332 91.99487305 C89 94 89 94 88 96 C81.4 96 74.8 96 68 96 C68.62360096 91.01119236 69.24480509 86.47216687 70.34765625 81.6328125 C70.61956787 80.43293701 70.89147949 79.23306152 71.17163086 77.99682617 C71.46561768 76.71912354 71.75960449 75.4414209 72.0625 74.125 C72.36945037 72.77780266 72.67616764 71.4305522 72.98266602 70.08325195 C74.70394022 62.53887684 76.46429593 55.00387238 78.2421875 47.47265625 C78.42609543 46.69335754 78.61000336 45.91405884 78.79948425 45.11114502 C79.69867434 41.30433746 80.60151985 37.49844671 81.51000977 33.69384766 C81.83871254 32.31022328 82.16740761 30.92659708 82.49609375 29.54296875 C82.78669678 28.32633545 83.0772998 27.10970215 83.37670898 25.85620117 C84.07106874 23.16156737 84.07106874 23.16156737 84 21 C75.57207429 36.20856003 67.19182813 51.43861006 58.97167969 66.76074219 C53.718427 76.54633218 48.37511318 86.2809178 43 96 C36.73 96 30.46 96 24 96 C22.34566993 86.82315019 21.30375603 77.67172689 20.4921875 68.390625 C20.36092228 66.9280038 20.2292518 65.46541891 20.09719849 64.00286865 C19.75454422 60.19590718 19.41731248 56.38848517 19.08129883 52.58093262 C18.7359284 48.67865556 18.38530604 44.77685059 18.03515625 40.875 C17.35169788 33.25044657 16.67398082 25.62539769 16 18 C15.86980972 18.66044312 15.73961945 19.32088623 15.60548401 20.00134277 C13.00992983 33.14218549 10.36227541 46.264075 7.42456055 59.33300781 C6.93047589 61.53125112 6.44052367 63.73038621 5.95117188 65.9296875 C3.71073269 75.97163375 1.37096813 85.9880722 -1 96 C-6.94 96 -12.88 96 -19 96 C-19 90.99761022 -18.97131585 88.05843582 -17.8125 83.5 C-16.30406582 77.30972764 -14.90944484 71.10250647 -13.5625 64.875 C-13.34489014 63.87057861 -13.12728027 62.86615723 -12.90307617 61.83129883 C-8.45315641 41.25186683 -4.23593474 20.62428764 0 0 Z " fill="#FBFBFD" transform="translate(261,303)"/>
<path d="M0 0 C6.27 0 12.54 0 19 0 C17.66035772 6.78955063 16.23910854 13.55437768 14.75 20.3125 C12.73900941 29.48541289 10.82214374 38.67536288 8.9375 47.875 C7.05153626 57.06615727 5.06869242 66.21772002 2.875 75.33984375 C0.75418358 84.21129458 -1.07720366 92.92583596 -2 102 C-3 103 -3 103 -6.81640625 103.09765625 C-8.39846682 103.09098089 -9.98051159 103.07901875 -11.5625 103.0625 C-12.36880859 103.05798828 -13.17511719 103.05347656 -14.00585938 103.04882812 C-16.00393756 103.03700518 -18.00197783 103.01906914 -20 103 C-20 100.36 -20 97.72 -20 95 C-20.928125 96.0828125 -20.928125 96.0828125 -21.875 97.1875 C-27.04293439 102.26833437 -33.30222738 105.2773841 -40.5625 105.5625 C-47.31884327 105.21847121 -52.43924488 102.97876532 -57.75 98.875 C-65.40805939 89.08970189 -67.00901245 79.05591167 -66 67 C-63.86453452 55.07800127 -58.84829636 43.50527808 -49 36 C-40.83710706 30.6840003 -32.57831269 29.68961194 -23 31 C-17.2748065 32.8910262 -12.47993877 35.96805511 -8 40 C-7.86859619 38.84048828 -7.73719238 37.68097656 -7.60180664 36.48632812 C-7.08277678 32.3450078 -6.28546297 28.28936257 -5.37109375 24.21875 C-5.21713638 23.51979614 -5.06317902 22.82084229 -4.90455627 22.10070801 C-4.41893635 19.89970371 -3.92831403 17.69985119 -3.4375 15.5 C-3.10448412 13.99486544 -2.77179888 12.48965768 -2.43945312 10.984375 C-1.63072594 7.32190974 -0.81522196 3.661049 0 0 Z " fill="#FAFBFD" transform="translate(559,296)"/>
<path d="M0 0 C6.0800899 4.02792311 10.41239796 8.76983783 12 16 C12.54366776 23.83984669 12.1152289 31.19339772 11 39 C-5.5 39 -22 39 -39 39 C-37.66308316 48.46270413 -37.66308316 48.46270413 -32 54 C-25.70086497 58.00213501 -16.07031239 56.64738683 -9.0625 55.125 C-7.70216206 54.77304398 -6.34846028 54.39502815 -5 54 C-2.69 53.34 -0.38 52.68 2 52 C1.34 56.95 0.68 61.9 0 67 C-14.31685447 70.79973389 -29.55824877 74.43242731 -43.35546875 66.67578125 C-49.9372004 61.97101623 -55.3802189 56.16072923 -57 48 C-58.26225249 35.2942497 -56.46473158 23.62241077 -48.6875 13.0625 C-47.49140565 11.67903465 -46.26244844 10.32319386 -45 9 C-44.40445313 8.36449219 -43.80890625 7.72898437 -43.1953125 7.07421875 C-32.40712848 -3.3782334 -13.68147904 -7.67364393 0 0 Z " fill="#FBFCFD" transform="translate(739,330)"/>
<path d="M0 0 C6.18567944 3.68662364 10.3235131 9.50285564 12.33984375 16.39453125 C12.69499575 19.45083447 12.6713688 22.44705606 12.58984375 25.51953125 C12.5846875 26.30457031 12.57953125 27.08960938 12.57421875 27.8984375 C12.51936306 31.96461537 12.15038684 35.3418158 11.33984375 39.39453125 C-5.16015625 39.39453125 -21.66015625 39.39453125 -38.66015625 39.39453125 C-37.32323941 48.85723538 -37.32323941 48.85723538 -31.66015625 54.39453125 C-27.98347146 56.80310022 -24.29560358 56.7388739 -20.03515625 56.70703125 C-18.97035034 56.70509766 -18.97035034 56.70509766 -17.8840332 56.703125 C-12.79983308 56.61073749 -8.37087531 55.83259548 -3.578125 54.05078125 C-1.66015625 53.39453125 -1.66015625 53.39453125 1.33984375 53.39453125 C1.00984375 58.01453125 0.67984375 62.63453125 0.33984375 67.39453125 C-14.14635095 71.32299083 -28.54451296 74.55203964 -42.66015625 67.39453125 C-49.54646086 62.51503435 -54.42286036 57.17776082 -56.3125 48.76171875 C-58.07557724 36.75694561 -56.11110881 25.66885326 -49.66015625 15.39453125 C-37.8349777 -0.42690329 -18.92663947 -8.05449469 0 0 Z " fill="#FBFCFD" transform="translate(814.66015625,329.60546875)"/>
<path d="M0 0 C4.91158972 2.98278947 8.32354107 7.08458215 10.875 12.1875 C12.87189481 22.57135302 10.49593529 32.34931092 8.125 42.4375 C7.64473109 44.52642719 7.16786653 46.61610292 6.69207764 48.70605469 C6.38460944 50.05606059 6.07543758 51.40567975 5.76446533 52.75488281 C4.64688991 57.64444694 3.71630646 62.54681232 2.90771484 67.49609375 C2.5 69.4375 2.5 69.4375 1.5 70.4375 C0.15732587 70.52381874 -1.18974322 70.54456473 -2.53515625 70.53515625 C-3.34404297 70.53193359 -4.15292969 70.52871094 -4.98632812 70.52539062 C-5.83646484 70.51701172 -6.68660156 70.50863281 -7.5625 70.5 C-8.41650391 70.49548828 -9.27050781 70.49097656 -10.15039062 70.48632812 C-12.26695663 70.47450373 -14.38348685 70.45656769 -16.5 70.4375 C-15.65511669 62.45524429 -14.39446001 54.73086788 -12.56860352 46.91357422 C-8.83201062 32.3008367 -8.83201062 32.3008367 -9.5 17.4375 C-12.5878307 14.25498284 -13.97918091 13.50363576 -18.4375 12.9375 C-24.0976295 13.25668024 -27.28768364 16.22518364 -31.1875 20.125 C-36.66724515 27.1547364 -37.72678674 37.34286644 -39.5625 45.8125 C-39.81837891 46.9675 -40.07425781 48.1225 -40.33789062 49.3125 C-41.87868611 56.33123934 -43.25698039 63.36001992 -44.5 70.4375 C-50.77 70.4375 -57.04 70.4375 -63.5 70.4375 C-61.93147498 61.43060893 -60.06355476 52.50140279 -58.1574707 43.56158447 C-55.10087548 29.2158381 -52.16307911 14.86251182 -49.5 0.4375 C-43.56 0.4375 -37.62 0.4375 -31.5 0.4375 C-31.5 2.0875 -31.5 3.7375 -31.5 5.4375 C-30.81292969 5.01597656 -30.12585938 4.59445312 -29.41796875 4.16015625 C-28.51691406 3.61230469 -27.61585938 3.06445312 -26.6875 2.5 C-25.79417969 1.95472656 -24.90085937 1.40945313 -23.98046875 0.84765625 C-17.23519892 -2.98705621 -7.08566462 -3.21950587 0 0 Z " fill="#FBFCFD" transform="translate(470.5,328.5625)"/>
<path d="M0 0 C24.09 0 48.18 0 73 0 C72.34 5.28 71.68 10.56 71 16 C61.76 16 52.52 16 43 16 C42.67 18.97 42.34 21.94 42 25 C41.61874271 26.95136808 41.19978162 28.89604324 40.73046875 30.828125 C40.48345215 31.86469238 40.23643555 32.90125977 39.98193359 33.96923828 C39.58868896 35.59321533 39.58868896 35.59321533 39.1875 37.25 C37.22780242 45.51348897 35.39934564 53.76996327 33.875 62.125 C32.49356543 69.69629645 30.81353579 77.11812465 28.83203125 84.5546875 C27.92952989 88.05047841 27.92952989 88.05047841 27.44921875 91.8828125 C27 95 27 95 26 96 C24.5112814 96.08669432 23.018555 96.10703494 21.52734375 96.09765625 C20.62822266 96.09443359 19.72910156 96.09121094 18.80273438 96.08789062 C17.38444336 96.07532227 17.38444336 96.07532227 15.9375 96.0625 C14.98810547 96.05798828 14.03871094 96.05347656 13.06054688 96.04882812 C10.70696935 96.0370011 8.35351523 96.02052025 6 96 C7.57845687 87.04257808 9.37887388 78.17156673 11.4375 69.3125 C13.12504352 62.04593634 14.65360196 54.77485277 16 47.4375 C17.94429878 36.8551177 20.44060241 26.45087348 23 16 C14.42 16 5.84 16 -3 16 C-2 5 -2 5 0 0 Z " fill="#F9FAFC" transform="translate(138,303)"/>
<path d="M0 0 C6.6 0 13.2 0 20 0 C18.39459261 8.95648332 16.62182684 17.82463391 14.5625 26.6875 C12.68444399 34.78071041 11.03420846 42.88817386 9.52856445 51.05810547 C7.6511811 61.1082438 5.31287439 71.04179084 3 81 C15.21 81 27.42 81 40 81 C39.01 85.95 38.02 90.9 37 96 C18.52 96 0.04 96 -19 96 C-19 91.08360373 -18.97837588 88.04876949 -17.86328125 83.54296875 C-17.61827881 82.5262207 -17.37327637 81.50947266 -17.12084961 80.46191406 C-16.85409424 79.38135742 -16.58733887 78.30080078 -16.3125 77.1875 C-14.13129568 68.07583005 -12.15285284 58.96077411 -10.4375 49.75 C-8.73708589 40.64878794 -6.84083764 31.62014708 -4.74511719 22.60205078 C-3.0028614 15.09469015 -1.46687843 7.56600453 0 0 Z " fill="#FCFCFD" transform="translate(85,303)"/>
<path d="M0 0 C-0.78173299 7.16588573 -2.25315632 14.01262526 -4 21 C1.28 21 6.56 21 12 21 C11.47694567 25.40860079 10.87251184 29.63744078 10 34 C4.39 34 -1.22 34 -7 34 C-7.33 36.31 -7.66 38.62 -8 41 C-8.37333793 42.78119604 -8.76946723 44.55781203 -9.19140625 46.328125 C-9.52495117 47.77638672 -9.52495117 47.77638672 -9.86523438 49.25390625 C-10.32683233 51.23735515 -10.79548736 53.21917606 -11.27148438 55.19921875 C-12.76091895 61.73883526 -13.8622746 68.28459643 -13 75 C-11.1371051 77.30060534 -11.1371051 77.30060534 -8.1796875 77.1953125 C-7.08914063 77.17210937 -5.99859375 77.14890625 -4.875 77.125 C-3.77929688 77.10695313 -2.68359375 77.08890625 -1.5546875 77.0703125 C-0.71164062 77.04710937 0.13140625 77.02390625 1 77 C0.36513571 88.27431403 0.36513571 88.27431403 -3 92 C-5.125 92.8125 -5.125 92.8125 -8 93 C-8.67417969 93.05027344 -9.34835937 93.10054688 -10.04296875 93.15234375 C-16.90562624 93.44763882 -21.96408096 91.82155142 -27.8125 88.3125 C-33.10489442 82.71768305 -33.30016124 76.63457376 -33.22485352 69.31689453 C-32.84884607 63.77027442 -31.48591307 58.54565674 -30.0625 53.1875 C-29.50886169 51.03588939 -28.95800033 48.88356198 -28.41015625 46.73046875 C-28.03141357 45.24426025 -28.03141357 45.24426025 -27.64501953 43.72802734 C-26.87890552 40.48784643 -26.37260558 37.30628496 -26 34 C-29.96 34 -33.92 34 -38 34 C-37.53875845 29.51936782 -37.09335878 25.37343514 -36 21 C-31.38 21 -26.76 21 -22 21 C-21.896875 19.47375 -21.79375 17.9475 -21.6875 16.375 C-21.38803495 11.9429173 -20.51215918 8.70963872 -18 5 C-15.38274922 3.73263758 -13.24953785 2.88963338 -10.5 2.125 C-9.82324219 1.91359375 -9.14648438 1.7021875 -8.44921875 1.484375 C-5.5386773 0.60030521 -3.05536301 0 0 0 Z " fill="#FBFBFD" transform="translate(617,308)"/>
<path d="M0 0 C6.6 0 13.2 0 20 0 C19.54687245 6.88753873 18.5873664 13.18260343 16.8203125 19.84765625 C14.73078412 27.87741533 13.16432073 36.02612229 11.6875 44.1875 C10.11373389 52.85632833 8.14140613 61.43362958 6.20532227 70.02734375 C4.27112466 78.65787108 2.55174113 87.29300809 1 96 C-5.93 96 -12.86 96 -20 96 C-17.62743515 83.09324719 -15.00522911 70.26552474 -12.17245483 57.45318604 C-9.70536146 46.29160346 -7.33530172 35.11468119 -5.04150391 23.91601562 C-3.40640654 15.93365053 -1.71623656 7.96535673 0 0 Z " fill="#FBFCFD" transform="translate(221,303)"/>
<path d="M0 0 C-0.11532936 1.87561967 -0.2427359 3.75049841 -0.375 5.625 C-0.44460938 6.66914063 -0.51421875 7.71328125 -0.5859375 8.7890625 C-1.00934454 12.0724643 -1.85544335 14.90132225 -3 18 C-3.9178125 18.00257813 -4.835625 18.00515625 -5.78125 18.0078125 C-15.33952313 18.23377975 -15.33952313 18.23377975 -23.25073242 23.03613281 C-29.85462794 30.45019221 -31.42708545 40.17181502 -33.1875 49.625 C-33.67967254 52.15911032 -34.17312687 54.69297208 -34.66796875 57.2265625 C-34.87703857 58.33596191 -35.0861084 59.44536133 -35.30151367 60.58837891 C-36.0855235 64.41772294 -37.05198203 68.20792813 -38 72 C-44.27 72 -50.54 72 -57 72 C-54.67644144 60.28166859 -52.32795089 48.56885507 -49.921875 36.8671875 C-49.74297729 35.99697464 -49.56407959 35.12676178 -49.37976074 34.23017883 C-48.48156684 29.86327805 -47.58157686 25.49675423 -46.6796875 21.13061523 C-46.34372949 19.49984147 -46.00779112 17.86906365 -45.671875 16.23828125 C-45.44090118 15.12397232 -45.44090118 15.12397232 -45.20526123 13.9871521 C-44.38450456 9.99779291 -43.67009759 6.02058553 -43 2 C-37.06 2 -31.12 2 -25 2 C-25.33 5.3 -25.66 8.6 -26 12 C-24.989375 10.7625 -23.97875 9.525 -22.9375 8.25 C-15.83947821 0.2753301 -10.63414057 -0.62861915 0 0 Z " fill="#FBFCFD" transform="translate(684,327)"/>
<path d="M0 0 C0.74886475 0.00523682 1.49772949 0.01047363 2.26928711 0.01586914 C3.07817383 0.0190918 3.88706055 0.02231445 4.72045898 0.02563477 C5.5705957 0.03401367 6.42073242 0.04239258 7.29663086 0.05102539 C8.15063477 0.05553711 9.00463867 0.06004883 9.88452148 0.06469727 C12.00108749 0.07652166 14.11761771 0.0944577 16.23413086 0.11352539 C15.81692045 5.85016857 14.78687466 11.28279196 13.42163086 16.86352539 C11.85174531 23.29241038 10.49919322 29.73100787 9.29663086 36.23852539 C7.19579793 47.58642367 4.73529525 58.84803497 2.23413086 70.11352539 C-4.03586914 70.11352539 -10.30586914 70.11352539 -16.76586914 70.11352539 C-14.77405988 59.0479184 -12.4939907 48.0658291 -10.11035156 37.078125 C-8.06847501 27.62992639 -6.15238731 18.16082642 -4.3269043 8.66845703 C-4.13531738 7.6873999 -3.94373047 6.70634277 -3.74633789 5.69555664 C-3.58029053 4.83164307 -3.41424316 3.96772949 -3.24316406 3.07763672 C-2.64871326 0.63141846 -2.53423067 0.16292234 0 0 Z " fill="#FCFCFD" transform="translate(385.765869140625,328.886474609375)"/>
<path d="M0 0 C4.31043205 2.11295689 7.10721307 4.63186251 9.30859375 8.9609375 C11.86681324 16.50551701 9.64918286 24.7718416 7 32 C3.97707861 37.72195834 -0.75847789 42.91949263 -7 45 C-10.08647684 45.45661362 -12.92631337 45.58777516 -16 45 C-18.80017433 42.86371677 -20.42903026 40.14193948 -22 37 C-22.81052759 26.64840472 -22.82939259 17.02929783 -17 8 C-11.82760808 2.29355614 -7.87905604 -0.656588 0 0 Z " fill="#034E89" transform="translate(535,341)"/>
<path d="M0 0 C2.625 1.6875 2.625 1.6875 4.625 4.6875 C4.625 8.3175 4.625 11.9475 4.625 15.6875 C-5.605 15.6875 -15.835 15.6875 -26.375 15.6875 C-23.95729754 8.43439262 -20.75628008 3.98964814 -14.4375 -0.3125 C-9.18359858 -2.02805965 -5.16129019 -2.00716841 0 0 Z " fill="#09518C" transform="translate(804.375,341.3125)"/>
<path d="M0 0 C2.1875 1.6875 2.1875 1.6875 5.1875 4.6875 C5.1875 8.3175 5.1875 11.9475 5.1875 15.6875 C-5.0425 15.6875 -15.2725 15.6875 -25.8125 15.6875 C-23.39479754 8.43439262 -20.19378008 3.98964814 -13.875 -0.3125 C-8.97579634 -1.91223997 -4.8136993 -2.24639301 0 0 Z " fill="#09518C" transform="translate(727.8125,341.3125)"/>
<path d="M0 0 C5.94 0 11.88 0 18 0 C17.13629221 6.04595456 16.11142755 11.99829124 15 18 C8.73 18 2.46 18 -4 18 C-2.92897459 11.803353 -1.73492439 6.07223536 0 0 Z " fill="#F8F9FB" transform="translate(391,298)"/>
</svg>
